<?xml version="1.0" encoding="UTF-8"?>
<svg id="_レイヤー_1" data-name="レイヤー 1" xmlns="http://www.w3.org/2000/svg" viewBox="0 0 160 160">
  <defs>
    <style>
      .cls-1 {
        fill: #8257a0;
      }

      .cls-2 {
        fill: #fff;
      }
    </style>
  </defs>
  <rect class="cls-1" width="160" height="160"/>
  <path class="cls-2" d="M114.71,112.58c.23.69-.12,1.44-.82,1.74-10.68,4.59-20.8,6.89-30.35,6.89-7.54,0-14.27-1.75-20.2-5.25-5.93-3.5-10.68-8.49-14.26-14.99-3.57-6.49-5.36-13.44-5.36-20.84s1.7-13.98,5.1-20.54c3.4-6.56,8.14-11.67,14.22-15.33,6.08-3.66,12.86-5.48,20.35-5.48,9.92,0,17.88,3.3,23.88,9.91,6,6.61,9.01,16.82,9.01,30.62v1.35c0,.8-.7,1.44-1.55,1.43l-46.26-.6c-.87-.01-1.57.66-1.55,1.47.11,4.81.89,9.11,4.38,12.25,3.86,3.46,8.14,5.38,12.75,5.56,4.92.2,3.63.53,8.67-.13,10.04-1.32,4.82-.71,14.99-3.79.81-.24,1.68.17,1.94.92l5.06,14.81ZM86.59,63.88l7.17,1.78c1.18.29,1.53,1.7.61,2.45l-5.04,4.1c-1.79-3.68,4.9.63,0-1.7-3.91-1.85,2.29.95-3.04-.37-5.45-1.34,2.43-4.75-1.7-.92-4.13,3.84,2.93-7.04,1.99-5.35Z"/>
  <path class="cls-1" d="M82.68,51.6c-6.75,0-12.22,6.72-12.22,15.01h24.44c0-8.29-5.47-15.01-12.22-15.01Z"/>
</svg>